<?xml version="1.0" encoding="UTF-8"?>
<svg id="Layer_1" data-name="Layer 1" xmlns="http://www.w3.org/2000/svg" viewBox="0 0 409 511.68">
  <defs>
    <style>
      .cls-1 {
        fill: #354652;
      }
    </style>
  </defs>
  <path class="cls-1" d="m120.5,1.37c-15.5,4.2-26.9,17.3-29.3,33.7-1,6.7-.9,7.8,1,11.3,2.6,5,7.2,7.7,12.9,7.6,7.7-.1,12.7-5.2,13.9-14.4,1-6.8,4.7-10.4,11.8-11.3,2.8-.3,58.5-.5,123.7-.3,129.8.3,120.5-.1,124.8,6,1.6,2.1,1.7,16,2,174.9.2,137,0,173.4-1,176.5-1.5,4.5-6.6,8.4-11,8.4-3.8,0-10.4,3.4-11.9,6.1-3.7,7-2.9,13.6,2.1,18.4,2.5,2.4,4,3,9.3,3.3,15.8,1,31.4-9.5,37.9-25.5l2.3-5.8v-179c0-171-.1-179.2-1.8-184.3-3.6-10.3-13.2-20.2-23.7-24.5l-5.5-2.2-126-.2C143.4-.13,125.2.07,120.5,1.37Z"/>
  <path class="cls-1" d="m27,91.57c-10.8,3.7-20.2,12.9-24.7,23.9l-2.3,5.8v179c0,171,.1,179.2,1.8,184.3,3.6,10.3,13.2,20.2,23.7,24.5l5.5,2.2,125.4.3c136.6.3,131.9.4,141.7-5.3,9.7-5.7,17.4-16.6,19.4-27.6.7-3.7.9-64.3.8-181.5l-.3-175.9-2.3-5.8c-4.6-11.3-14-20.1-25.6-24-4.5-1.6-16.2-1.7-131.5-1.6-116.7,0-127,.2-131.6,1.7Zm256.4,27.6c1.5.8,3.7,2.8,4.7,4.3,1.8,2.7,1.9,7.6,1.9,176.8s-.1,174.2-1.8,176.8c-.9,1.5-2.9,3.5-4.4,4.4-2.6,1.7-9.8,1.8-124.3,1.8-131.5,0-125.9.2-129.7-5.4-1.7-2.5-1.8-10.9-2.1-175.2-.2-136.8,0-173.5,1-176.5.8-2.4,2.6-4.7,4.7-6.1l3.4-2.3h121.9c104.5,0,122.3.2,124.7,1.4Z"/>
</svg>