<?xml version="1.0" encoding="utf-8"?>
<!-- Generator: Adobe Illustrator 27.3.1, SVG Export Plug-In . SVG Version: 6.00 Build 0)  -->
<svg version="1.1" id="Layer_1" xmlns="http://www.w3.org/2000/svg" xmlns:xlink="http://www.w3.org/1999/xlink" x="0px" y="0px"
	 viewBox="0 0 500 641.3" style="enable-background:new 0 0 500 641.3;" xml:space="preserve">
<style type="text/css">
	.st0{display:none;fill:#FCFDFD;}
	.st1{fill:#354652;}
	.st2{fill:#9FCFBE;}
	.st3{fill:#FD6F7C;}
	.st4{fill:#F76C79;}
	.st5{fill:#4D9485;}
	.st6{fill:#569C8B;}
	.st7{fill:#374954;}
	.st8{display:none;fill:#FD8C8B;}
	.st9{fill:#364653;}
	.st10{fill:#344450;}
	.st11{fill:#FE8B8B;}
	.st12{fill:#5DA693;}
	.st13{fill:#EE6672;}
	.st14{fill:#437571;}
	.st15{fill:#F0F7F8;}
	.st16{fill:#3D505A;}
	.st17{fill:#F6F9F9;}
</style>
<path class="st0" d="M252.7,0.1c3,1.1,3,1.1,5.8,2.6c1,0.6,2.1,1.1,3.2,1.7c2.6,1.5,5.2,3,7.8,4.6c6.8,4.2,14,7.6,21.2,11.1
	c0.7,0.4,1.5,0.7,2.2,1.1c11,5.4,11,5.4,22.5,9.3c2.4,0.7,4.6,1.6,6.9,2.5c5.9,2.4,12,4.4,18,6.4c2.2,0.7,4.4,1.5,6.6,2.3
	c15.1,5.1,29.5,5.3,45.4,5.2c2.7,0,5.4,0,8.1,0c6.4,0,12.7,0,19.1,0c11.4,0,22.8,0,34.2,0c4.6,0,9.3,0,13.9,0c2.4,0,4.8,0,7.3,0
	c1.1,0,2.2,0,3.3,0c7.2,0,11.6,1,17.1,5.9c3.3,3.8,3.3,6.7,3.3,11.6c0,1.3,0,2.6,0,3.9c0,1.4,0,2.9,0,4.3c0,1.5,0,3,0,4.6
	c0,4.2,0,8.4,0,12.6c0,4.5,0,9,0,13.5c0,10.9,0,21.8,0,32.7c0,5.1,0,10.3,0,15.4c0,17.1,0,34.2,0,51.3c0,4.4,0,8.9,0,13.3
	c0,1.1,0,2.2,0,3.3c0,17.9,0,35.7,0.1,53.6c0,18.3,0.1,36.7,0.1,55c0,10.3,0,20.6,0,30.9c0,8.8,0,17.6,0,26.3c0,4.5,0,8.9,0,13.4
	c0.1,23.9-1.1,46.7-8.4,69.7c-0.3,1.1-0.7,2.3-1.1,3.4c-2.6,8.4-5.5,16.5-9.1,24.5c-0.5,1.1-0.5,1.1-1,2.2
	c-7.7,17.3-17.1,33.1-29,47.8c-0.7,0.9-1.4,1.8-2.2,2.8c-3.5,4.5-7.1,8.6-11.1,12.5c-1.8,1.8-3.3,3.6-4.9,5.5
	c-7.3,8.4-16,15.4-25,21.9c-1.9,1.4-3.8,2.7-5.6,4.1c-20.1,14.7-42.5,26.2-66.1,34.1c-0.8,0.3-1.6,0.6-2.5,0.9
	c-14.6,4.9-29.2,8.2-44.4,10.6c-2,0.3-4.1,0.7-6.1,1.1c-10.6,1.9-21.2,1.8-31.9,1.7c-1,0-2,0-3,0c-14.9,0-29.5-0.4-44.2-3.3
	c-0.9-0.2-1.9-0.4-2.8-0.5c-12.7-2.5-25-6-37.2-10.5c-0.8-0.3-1.7-0.6-2.6-0.9c-11.9-4.3-23.3-9.1-34.4-15.1c-0.7-0.3-1.3-0.7-2-1
	c-19.3-10.3-37.5-22.9-52.7-38.6c-1.8-1.8-3.6-3.5-5.6-5.1c-3.7-3.1-6.6-6.6-9.7-10.3c-0.8-1-1.7-1.9-2.5-2.9
	c-6.9-7.9-12.9-16.2-18.5-25.1c-0.4-0.6-0.8-1.3-1.2-2c-14-22.3-25.1-47.8-30.3-73.7c-0.4-2.1-0.8-4.1-1.3-6.2
	c-3.1-16.5-2.6-33.2-2.6-49.8c0-4.5,0-9.1,0-13.6c0-8.9,0-17.8,0-26.6c0-7.2,0-14.4,0-21.6c0-2.1,0-4.2,0-6.3c0-1,0-2.1,0-3.1
	c0-19.6,0-39.2,0-58.7c0-17.9,0-35.8,0-53.7c0-18.4,0-36.8,0-55.2c0-10.3,0-20.7,0-31c0-8.8,0-17.6,0-26.3c0-4.5,0-9,0-13.4
	c0-4.1,0-8.2,0-12.3c0-1.5,0-3,0-4.4C-0.1,56-0.1,56,5.7,50.1c5.3-4,11.2-3.4,17.5-3.3c1.7,0,1.7,0,3.5,0c2.5,0,5,0,7.5,0
	c4,0,8,0,12,0c11.3,0,22.7,0,34,0c6.3,0,12.5,0,18.8,0c3.3,0,6.6,0,9.9,0c15.7,0.1,29.6-1,44.6-6c2.9-1,5.8-1.8,8.7-2.6
	c1.7-0.5,3.4-1.1,5.1-1.6c0.9-0.3,1.8-0.6,2.8-0.9c6.7-2.2,13.2-4.6,19.6-7.5c1.5-0.7,3-1.3,4.5-2c13.6-6,27.3-12.2,40.1-19.7
	c1.1-0.6,1.1-0.6,2.2-1.3c1.3-0.8,2.7-1.6,4-2.4C244.7,0.3,247.8-0.5,252.7,0.1z"/>
<path class="st1" d="M252.7,0.2c5.7,1.2,12.1,6.5,17.2,9.2c13.5,7.2,27.4,13.7,41.5,19.6c26.4,11,52.4,18,81.1,17.8
	c2.7,0,5.4,0,8.1,0c6.4,0,12.7,0,19.1,0c21.5-0.1,43.9-1.9,65.3,0.6c2.7,0.3,5.6,0.8,7.9,2.3c8.2,5.3,6.4,18.9,6.3,27.2
	c-0.1,39.8-0.2,79.6-0.3,119.4c-0.1,43.7-0.2,87.4,0.5,131.1c0.7,42,2.2,84.5-5.7,126c-7.6,40.1-26.3,75.8-53.9,105.9
	c-54,58.8-135.5,88.5-214.6,80.9c-43.8-4.2-86.8-19-123.1-44c-31.1-21.4-57-50.4-75.1-83.6C5.5,472.9,0.4,430.6,0.4,386.3
	C0.2,288.7,0.1,191.1,0,93.5c0-8.4,0-16.8,0-25.2c0-23.4,16.2-21.6,34.8-21.8c11.1-0.1,22.2,0.2,33.3,0.4
	c22.6,0.5,45.3,0.8,67.6-2.7C170.9,38.5,204,23.4,235,5.7c4.6-2.6,11.4-6.4,16.9-5.6C252.2,0.1,252.4,0.2,252.7,0.2z M242.5,44.8
	c-2.6,0.9-5.1,2.2-7.5,3.5c-31.4,16.5-65.5,27.8-100.5,33.6c-17.5,2.9-35.2,4.4-53,4.5c-12.6,0.1-42.9-9.1-42.9,7.5
	c0,1.2,0,2.4,0,3.7c0,1.4,0,2.7,0,4.1c0,1.4,0,2.9,0,4.3c0,3.9,0,7.8,0,11.6c0,4.1,0,8.1,0,12.2c0,6.8,0,13.6,0,20.4
	c0,7.9,0,15.8,0,23.6c0,6.8,0,13.5,0,20.3c0,4,0,8.1,0,12.1c0,3.8,0,7.6,0,11.4c0,1.4,0,2.8,0,4.2c0,1.9,0,3.8,0,5.7
	c0,1.1,0,2.1,0,3.2c-0.1,2.3-0.1,2.3,1.1,3.4c1.9,0.1,3.8,0.1,5.7,0.1c1.2,0,2.3,0,3.5,0c1.8,0,1.8,0,3.7,0c1.2,0,2.4,0,3.7,0
	c1.2,0,2.3,0,3.5,0c1.1,0,2.1,0,3.2,0c2.6,0,2.6,0,4.6-1.1c-1.4-9.3-3.7-18.3-7.7-26.8c-1.4-3.7-1.7-6.3-1.2-10.2
	c3.7-2.4,6.5-2.3,10.7-2.4c1.1,0,1.1,0,2.3-0.1c2.4-0.1,4.8-0.1,7.2-0.2c1.6,0,3.2-0.1,4.9-0.1c4-0.1,8-0.2,11.9-0.3
	c0-0.9,0-1.9,0-2.9c0-3.6,0.1-7.1,0.1-10.7c0-1.5,0-3.1,0-4.6c0.1-17.8,0.1-17.8,5.8-24.9c5.2-5,10.3-5.6,17.2-5.5
	c10.3-0.2,17.3-2.9,26.2-8.1c1.2-0.7,1.2-0.7,2.4-1.4c1.6-0.9,3.1-1.8,4.6-2.8c6.1-3.6,10.8-4.3,17.7-2.9c2.3,0.6,4.5,1.3,6.7,2
	c0.8,0.3,1.7,0.5,2.6,0.8c2.9,0.9,5.7,1.8,8.6,2.8c2.2,0.7,4.3,1.4,6.5,2.1c5.9,1.9,11.8,3.8,17.7,5.7c3.3,1.1,6.7,2.1,10,3.2
	c2.7,0.9,5.5,1.8,8.2,2.6c1.3,0.4,2.6,0.8,3.9,1.3c10.1,3.2,15.6,6.2,22.2,14.5c1.5,1.9,3,3.8,4.5,5.6c0.4,0.6,0.7,1.2,1.1,1.8
	c2.1,3,3.7,4.9,7.3,5.8c3.1,0.2,6.1,0.2,9.2,0.2c1.8,0,1.8,0,3.6,0c3.2,0,6.4,0,9.6-0.1c3.4,0,6.8,0,10.1,0c7.9,0,15.7,0,23.6-0.1
	c10-0.1,20-0.1,29.9-0.1c4.6,0,9.3,0,13.9-0.1c23.5-0.1,41.2,4,58.7,20.6c13.1,13.8,16.4,29.4,16.3,47.8c0,2.4,0,4.8,0.1,7.2
	c0.1,14.8-2.3,28.4-10.5,41c-0.6,0.9-1.2,1.9-1.8,2.8c-7.5,11.5-18.7,19.2-31.1,24.4c-14.4,6-33.6,3.7-49.2,3.8
	c-30.2,0.3-60.4,0.6-90.6,0.9c-22.6,0.2-45.4,0.4-67.4-4.8s-43.3-16.6-56-35.2c-2.7-4-5.1-8.5-5.6-13.3c-0.4-4.8,1.4-10.1,5.5-12.7
	c5.1-3.2,11.9-1.3,16.7,2.3c4.8,3.6,8.1,8.7,12.3,13c18.5,19.3,48.4,20.5,75.2,20.4c39.1-0.1,78.2-0.3,117.4-0.4
	c14.6-0.1,30.7-0.6,41.7-10.2c10-8.8,13.3-23,13.7-36.3c0.3-9.3-0.6-19.1-6-26.8c-9.8-14-29.7-15.4-46.8-15.3
	c-40.3,0.1-80.5,0.3-120.8,0.4c-1.9-8.9-4.5-18.3-11.4-24.2c-4.6-3.9-10.6-5.6-16.4-7.3c-9.8-2.9-19.7-5.7-29.5-8.5
	c-9.5-2.7-18.6-4.3-27.9-0.1c-9.6,4.4-17.9,8-28.9,7.1c0.1,0,0.1,20.3-0.1,22.1c-0.8,6.7-4.2,10-9.1,14.7
	c-26.6,25.3-45.6,58.5-54.5,94.1c-1.6,6.5-3,13.1-6.3,18.9c-2.1,3.7-5.3,7.2-9.1,9.1c-6.6,3.2-7.9,0.2-8,8.7
	c-0.2,12.8,0,25.6,0,38.3c3.7,0,7.4,0,11.2,0c33.9,0,67.7,0.1,101.6,0.2c4.4,0,8.9,0,13.3,0c1.3,0,1.3,0,2.7,0
	c14.3,0,28.6,0,42.9,0.1c14.7,0,29.4,0,44.1,0.1c9.1,0,18.1,0,27.2,0c6.2,0,12.4,0,18.6,0c3.6,0,7.2,0,10.8,0c3.9,0,7.8,0,11.7,0
	c1.1,0,2.3,0,3.4,0c6.1,0.1,9.9,0.4,14.5,4.5c3.1,4.4,2.7,9.9,2,15c-1.9,3.9-5,6.4-9,8c-2.4,0.3-2.4,0.3-5.1,0.3c-1,0-2.1,0-3.1,0
	c-1.1,0-2.3,0-3.5,0c-1.8,0-1.8,0-3.7,0c-3.4,0-6.7,0-10.1,0c-3.6,0-7.3,0-10.9,0c-6.3,0-12.6,0-18.9,0c-9.1,0-18.2,0-27.3,0.1
	c-14.8,0-29.5,0.1-44.3,0.1c-14.3,0-28.7,0.1-43,0.1c-1.3,0-1.3,0-2.7,0c-4.4,0-8.9,0-13.3,0c-36.8,0.1-73.5,0.2-110.3,0.3
	c0,2,0,4.1,0,6.1c0,1.1,0,2.3,0,3.4c0.1,5.2,0.9,10.2,1.8,15.2c0.2,1,0.4,2.1,0.5,3.1c1.5,13.9,1.5,13.9,6.7,26.1
	c1.8,0.1,3.6,0.1,5.4,0.2c1.2,0,2.3,0,3.5,0c1.3,0,2.6,0,3.9,0c1.4,0,2.7,0,4.1,0c3.8,0,7.5,0,11.3,0.1c4,0,8,0,12,0.1
	c6.8,0,13.6,0.1,20.5,0.1c10.6,0.1,21.2,0.1,31.7,0.2c1.8,0,3.5,0,5.3,0c2.6,0,5.2,0,7.9,0c9.5,0.1,19,0.1,28.5,0.2
	c0.8,0,1.6,0,2.5,0c11.8,0.1,23.6,0.1,35.3,0.2c8.1,0,16.3,0.1,24.4,0.2c5.2,0,10.4,0.1,15.6,0.1c3.1,0,6.3,0,9.4,0.1
	c1.4,0,2.8,0,4.2,0c12.7,0,12.7,0,17.5,4.6c2.9,4.4,3.6,7.8,3,13c-1.4,3.9-2.9,6.3-6.5,8.6c-4.4,1.8-7.9,1.9-12.6,1.8
	c-0.9,0-1.8,0-2.8,0c-3,0-6.1,0-9.1,0c-2.2,0-4.4,0-6.6,0c-5.9,0-11.9,0-17.8,0c-6.2,0-12.4,0-18.6,0.1c-11.1,0-22.2,0.1-33.2,0.1
	c-10.1,0-20.1,0-30.2,0.1c-0.7,0-1.3,0-2,0c-3.3,0-6.6,0-10,0c-15.5,0.1-31,0.1-46.5,0.1c-7.9,0-15.9,0-23.8,0.1c-1.8,0-3.7,0-5.5,0
	c-1.1,0-5.1-0.6-5.9,0.1c-1.5,1.2,1.9,8,2.6,9.8c0.2,0.5,0.4,1.1,1,1.2c0.4,0.1,0.8-0.1,1.2,0.1c0.3,0.1,0.5,0.5,0.7,0.9
	c9.4,22.4,29.2,38.3,47.7,53c0.7,0.5,1.3,1,2,1.6c15.8,12.4,35.1,22.9,54,29.4c1.5,0.6,3,1.3,4.6,1.9c11.9,4.7,24.3,8.1,36.9,10.4
	c0.9,0.2,1.7,0.3,2.6,0.5c20.2,3.5,41.7,3.7,61.9,0.2c1.5-0.2,2.9-0.4,4.4-0.6c52.6-7.1,105.2-36.8,137.7-79
	c12.3-16.5,22.9-34.3,28.9-54c1-3.4,1-3.4,2.5-7c2.2-5.7,3.3-11.6,4.6-17.6c0.3-1.1,0.5-2.3,0.8-3.5c2.8-12.6,4.5-24.6,4.4-37.5
	c0-1.4,0-2.8,0-4.1c0-3.7,0-7.5,0-11.2c0-4.1,0-8.1,0-12.2c0-7,0-14,0-21c0-10.1,0-20.3,0-30.4c0-16.4,0-32.9,0-49.3
	c0-16,0-31.9,0-47.9c0-1,0-2,0-3c0-4.9,0-9.9,0-14.8c0-41-0.1-81.9-0.1-122.9c-11.8-5.9-32.1,0.1-45,0.1c-17.5,0-35-1.4-52.2-4.1
	C328,76.4,293.4,65,261.6,48.2c-4-2.1-8.1-4.4-12.6-4.5C246.7,43.6,244.6,44.1,242.5,44.8z"/>
<path class="st2" d="M176.4,165.2c0.6,0.2,1.3,0.4,1.9,0.6c10.3,3.5,20.7,6.5,31.3,9c8.1,1.9,17.7,3.6,22.7,11.1
	c4.5,6.8,7.4,13.1,8.4,21.2c0.7,0,1.4,0,2.2,0c17.5,0,35-0.1,52.6-0.1c8.5,0,16.9,0,25.4,0c7.4,0,14.8,0,22.2,0c3.9,0,7.8,0,11.7,0
	c3.7,0,7.4,0,11.1,0c2,0,4,0,6,0c12.9,0,24.4,2.9,34,12.1c7.8,8.5,8.8,17,8.5,28.2c0,1.3,0,2.6,0,3.9c-0.2,13.1-2.8,22.1-11.6,32
	c-8.4,8.1-18.4,12.1-30,12.1c-0.7,0-1.4,0-2.1,0c-2.4,0-4.7,0-7.1,0c-1.7,0-3.4,0-5.1,0c-5.6,0-11.1,0-16.7,0c-1.9,0-3.8,0-5.8,0
	c-9,0-18,0-27,0c-10.4,0-20.8,0-31.2,0.1c-8,0-16.1,0-24.1,0c-4.8,0-9.6,0-14.4,0c-4.5,0-9,0-13.6,0c-1.6,0-3.3,0-4.9,0
	c-10.5,0.1-19.1-1-29.1-4.5c-2-0.7-4-1.3-6-2c0-0.7,0-1.3,0-2c-1-0.2-2-0.4-3.1-0.7c-4.5-1.3-7.4-3.8-10.8-6.8
	c-0.9-0.8-0.9-0.8-1.8-1.6c-3.7-3.3-7-6.7-10.2-10.4c-4.6-5.3-8.4-8.6-15.6-9.1c-5,0.2-7.1,2-10.4,5.6c-2.6,3.5-2.5,6.7-2,11
	c2.8,8.1,8.1,13.9,14,20c0.6,0.6,1.1,1.2,1.7,1.9c19.5,21.6,49,25.4,76.1,30.1c-7.4,6.7-13.7,13.5-17.8,22.8c-1,2.2-7.9,29-4.5,29
	c43.8,0.3,87.6,0.5,131.5,0.8c-96.7,0.5-193.3,0.5-290,0.5c-1,0-2,0-2.9,0c0-14.5,0-29,0-44c12-6,12-6,14-6c0-0.7,0-1.3,0-2
	c0.7,0,1.3,0,2,0c3.2-7.7,5.5-15.6,7.4-23.7c5.6-24,17.3-46.4,31.6-66.3c0.9-1.2,1.7-2.5,2.6-3.7c0.9-1.3,1.8-2.6,2.7-3.9
	c0.4-0.6,0.9-1.3,1.3-1.9c1.1-1.5,2.2-3,3.4-4.5c0.7,0,1.3,0,2,0c0.2-0.5,0.5-1.1,0.7-1.7c3.3-7.8,9.8-14.1,17.3-17.8
	c0.8-0.4,1.7-0.8,2.1-1.7c0.2-0.5,0.2-1.1,0.2-1.7c-0.1-4.8-0.2-9.6-0.4-14.5c-0.1-3.9-0.5-7.8,0.1-11.7c0-0.3,0.1-0.6,0.3-0.8
	c0.3-0.3,0.8-0.3,1.2-0.3c6.7,0.5,13.8-0.4,20.1-2.8c4.9-1.8,9.4-4.6,14.3-6.2C167.6,163.5,171.7,163.8,176.4,165.2z"/>
<path class="st3" d="M60.6,493.1c45.9,0,91.7,0,139,0c0,34.7,0,69.3,0,105c-10.2-2.3-10.2-2.3-13.6-3.3c-0.8-0.2-1.5-0.5-2.3-0.7
	c-23.4-7.5-46.8-18.5-66.1-33.9c-0.9-0.7-1.7-1.4-2.6-2.1c-18.1-14.6-37-31.3-48.4-51.9c0-0.7,0-1.3,0-2c-0.7,0-1.3,0-2,0
	c-0.7-1.5-1.3-2.9-2-4.4c-0.4-0.8-0.7-1.6-1.1-2.5C60.6,495.1,60.6,495.1,60.6,493.1z"/>
<path class="st4" d="M39.3,409.6c0.5-0.5,1.4-0.6,3-0.6c2.6,0,5.2,0,7.8,0c18,0,36,0,54,0c14.2,0,28.5,0.1,42.7,0.1
	c0.3,0,0.6,0,0.9,0c37,0.1,73.9,0.1,110.9,0.2c24.4,0,48.8,0.1,73.2,0.1c-43.7,0.3-87.4,0.7-131.1,1c0,17.6-0.1,35.1-0.1,52.7
	c0,0-101.1,0-110.3,0c-7.6,0-15.1,0-22.7,0c-3.9,0-7.8-0.1-11.6,0c-2.9,0.1-6.3,1.4-8.6-1.1c-1.9-2.2-2.4-6.2-3.1-9
	c-1-4.1-1.9-8.3-2.7-12.5c-1.7-9.2-2.8-18.6-2.9-28C38.7,411,38.8,410.1,39.3,409.6z"/>
<path class="st5" d="M107.8,221.7c0.8,2-0.6,4.8-1.4,6.7c-7.6,19.3-10.6,40.6-6.8,61c3.8,20.4,14.6,39.6,31.1,52.2
	c8.7,6.6,18.8,11.3,29.1,15c1.2,0.4,2.5,0.9,3.2,1.9c0.7,1,0.7,2.3,0.7,3.6c-0.1,6-0.2,12.1-0.2,18.1c-41.6,0-83.2,0-124.8,0
	c-0.1-13.3-0.1-26.5-0.2-39.8c0-1.2,0-2.5,0.5-3.6c0.6-1.3,1.9-2.2,3.3-2.9c3.3-1.5,7.1-2,9.9-4.3c2.5-2.1,3.6-5.3,4.6-8.4
	c5-15.3,8.8-31.7,15-46.5c3.3-8,8.5-15,13.1-22.3c5.2-8.2,10.4-16.3,15.6-24.5C102.2,225.5,105.3,223.2,107.8,221.7z"/>
<path class="st6" d="M157.7,264.1c4.5,1.4,8.9,3.2,13.2,5c6.7,2.4,12.7,3.3,19.8,3.2c1.3,0,1.3,0,2.7,0c2.9,0,5.8,0,8.8,0
	c2.1,0,4.2,0,6.3,0c5.7,0,11.4,0,17.1,0c6,0,11.9,0,17.9,0c10,0,20,0,30,0c11.6,0,23.1,0,34.7,0c11.1,0,22.3,0,33.4,0
	c4.7,0,9.5,0,14.2,0c5.6,0,11.2,0,16.7,0c2,0,4.1,0,6.1,0c2.8,0,5.6,0,8.4,0c0.8,0,1.6,0,2.5,0c3.9,0,7.5-0.2,11.2-1.1
	c-3.2,9.3-11.5,15.7-19.1,21.5c-0.6,0.5-1.2,1-1.9,1.5c0,0.3,0,0.7,0,1c-22.4,0.1-44.9,0.2-67.3,0.2c-10.4,0-20.8,0-31.3,0.1
	c-9.1,0-18.2,0.1-27.3,0.1c-4.8,0-9.6,0-14.4,0c-4.5,0-9.1,0-13.6,0c-1.7,0-3.3,0-5,0c-10.5,0.1-19.1-1-29.1-4.5c-2-0.7,5.7,3.1-6-2
	c-11.7-5.1,0.9-3.1,0-2s-2.8-2.4-3.1-0.6c-0.3,1.7-7.5-3.9-10.9-7c-0.6-0.5-1.2-1.1-1.8-1.6c-4.4-3.9-8.7-8-12.2-12.8
	C157.7,264.8,157.7,264.5,157.7,264.1z"/>
<path class="st7" d="M216.4,182.4c1.7,1.3,1.7,1.3,3.3,2.8c0.9,0.8,0.9,0.8,1.8,1.5c6.1,5.4,10.8,13.4,11.4,21.6
	c0.2,11.2-1.1,21.2-8.6,30.1c-8.1,8.3-17.5,12.1-29,12.4c-10.7,0-19.4-4.2-27.2-11.6c-8-9-12.3-19-11.8-31.2
	c1.5-10.5,7.2-19,15.5-25.4C183.6,174.6,204.1,175,216.4,182.4z"/>
<path class="st8" d="M83.7,493.1c38.6,0,77.2,0,117,0c0,34.7,0,69.3,0,105c-6.3-1.4-12.2-2.9-18.3-4.8c-0.8-0.3-1.6-0.5-2.5-0.8
	c-18.3-5.9-18.3-5.9-22.2-10.4c4.8,0.9,4.8,0.9,7,2c-0.1-0.9-0.1-0.9-0.2-1.8c-1-9-0.9-18.1-0.9-27.1c0-1.7,0-3.4,0-5.1
	c0-4.5,0-8.9,0-13.4c0-4.6,0-9.1,0-13.7c0-8.9,0-17.9,0-26.8c-2.9-0.8-5.4-1.1-8.4-1.1c-0.9,0-1.7,0-2.6,0c-1.4,0-1.4,0-2.9,0
	c-2,0-4.1,0-6.1,0c-1.6,0-1.6,0-3.2,0c-19,0.1-37.8,0-56.8-1C83.7,493.8,83.7,493.5,83.7,493.1z"/>
<path class="st9" d="M405.9,352.7c1.9,0.5,3.7,1.4,5.3,2.6c2.3,1.7,4.4,3.9,5.3,6.6c0.5,1.7,0.5,3.4,0.5,5.2c0,2.5-0.1,5.1-0.1,7.6
	c0,1,0.1,2.2,0.9,2.8c0.5,0.4,1.1,0.4,1.7,0.4c5.4,0.2,11.3-1.2,16,1.5c3,1.7,5.1,4.9,6,8.3c1.9,7.2-1.7,15.9-8.7,18.5
	c-3.8,1.4-8,1-12,0.8c-0.9,0-1.8,0-2.6,0.4c-1.7,1.1-1.2,3.7-0.9,5.7c0.8,5.6-1.9,11.6-6.6,14.7s-11.3,3.2-16.2,0.3
	c-4.8-3-7.7-8.9-7.1-14.5c0.3-2.2,0.7-5.1-1.3-6.1c-0.6-0.3-1.4-0.4-2.1-0.4c-4.9,0-10,1.1-14.4-1.1c-4.9-2.5-7.1-8.5-6.9-14
	c0.1-2.8,0.7-5.7,2.3-8c1.9-2.9,5.2-4.7,8.5-5.5c3.4-0.8,6.9-0.8,10.3-0.6c1,0,2.2,0,3-0.7c0.6-0.6,0.7-1.5,0.7-2.3
	c0.2-4.9-1.3-10.1,0.5-14.6C391,353.2,399.1,350.8,405.9,352.7z"/>
<path class="st10" d="M356.6,440.5c3.7,1.2,6.8,3.8,8.6,7.5c2.3,5,2.2,10.8,1.6,16.2c3.5-0.5,7.1-0.9,10.7-0.6
	c3.6,0.3,7.2,1.5,9.8,3.9c1.9,1.8,3.2,4.2,4,6.7c1.9,6.6-0.9,14.6-7.1,17.5c-5.3,2.5-11.5,0.9-17.3,1.4c0.3,5.5,0.4,11.4-2.2,16.2
	c-3.6,6.6-12.5,9.7-19.4,6.8c-1.8-0.8-3.5-1.9-4.7-3.4c-2.1-2.6-2.8-6.1-2.9-9.5c-0.1-3.4,0.3-6.7,0.1-10.1
	c-6.3-0.6-13.3,1.8-18.8-1.4c-3.5-2.1-5.5-6.1-6.2-10.2c-1-6.2,1.5-13.4,7.3-15.8c2.4-1,5.1-1.1,7.7-1.1c3.5,0,7,0.1,10.4,0.2
	c-0.6-3.9-1.3-7.8-0.9-11.8c0.8-7.3,5.8-12.4,13.1-13.3C352.3,439.7,354.5,439.9,356.6,440.5z"/>
<path class="st11" d="M110.7,410.1c29.7,0,59.4,0,90,0c0,17.5,0,35,0,53c-11.9,0-23.8,0-36,0c-1.1-19.5-1.1-19.5-0.9-26.3
	c0-0.7,0-1.3,0.1-2c0.1-2.4,0.2-4.8,0.3-7.2c0.2-5.4,0.4-10.8,0.6-16.4c-17.8,0-35.6,0-54,0C110.7,410.8,110.7,410.5,110.7,410.1z"
	/>
<path class="st12" d="M111.7,322.4c0.4-0.1,1,0,1.7,0.5c4,2.6,6.5,6.9,9.6,10.4c3.4,3.8,7.6,7.1,11.7,10
	c9.2,6.4,19.5,10.7,29.9,14.9c0,7.3,0,14.5,0,22c-0.1-1-49.2-1-52.9-1c-1.2-8.2-0.4-17.1-0.6-25.3c-0.2-8.7-0.4-17.4-0.5-26
	C110.6,326.2,110.3,322.8,111.7,322.4z"/>
<path class="st13" d="M61.7,493.1c0-0.5,41.3,0.7,45,0.8c1.1,0,4.3-0.4,5,0.4c1,1.1,0,7.3,0,8.9c0,3.1,0,6.1,0,9.2
	c0,3.1,0,36.6,0,36.6c-7,0-7,0-9.5-1.6c-0.7-0.7-1.5-1.5-2.2-2.3c-0.8-0.8-1.6-1.7-2.5-2.5c-0.9-0.9-1.7-1.8-2.6-2.7
	c-0.9-0.9-1.8-1.8-2.7-2.8c-24.6-25.6-24.6-25.6-24.6-33.1c-0.7,0-1.3,0-2,0c-0.7-1.5-1.3-2.9-2-4.4c-0.4-0.8-0.7-1.6-1.1-2.5
	C61.7,495.1,61.7,495.1,61.7,493.1z"/>
<path class="st14" d="M59.7,314.5c3.8,6.5,1,22.4,0.9,30.3c-0.1,11.2-0.4,22.3-0.8,33.5c0,0.6-0.1,1.2-0.5,1.5
	c-0.4,0.3-0.9,0.4-1.4,0.3c-6.4,0-12.7,0-19.1-0.1c-0.1-12.7-0.3-25.3-0.4-38c-0.1-6.8,4.1-7.1,9.2-9.6c3.6-1.8,6.6-4.8,8.4-8.4
	C57.6,321,57.5,317.1,59.7,314.5z"/>
<path class="st15" d="M388.7,210.1c7.5,0.4,13.4,5,18.3,10.4c7.1,8.3,7.3,16,7.1,26.5c0,1.3,0,2.6,0,4c-0.1,13.2-2.7,22.1-11.5,32.2
	c-5.8,5.7-13.4,10.8-21.8,11.1c-0.7,0-1.5-0.1-2.2-0.1c0.7-0.6,1.5-1.2,2.2-1.7c11.7-9.4,21.5-19.2,24.8-34.3
	c0.9-11.4,1.6-23.3-6.1-32.4c-3.9-4.1-8-7.7-12.9-10.6C387.4,213.5,388,211.8,388.7,210.1z"/>
<path class="st16" d="M383,230.7c5.6,3.9,9.3,13.1,6.6,18.4c-3.3,6.7-12.8,9.2-19,5c-9.2-6.3-5.3-17.7,1.9-23.4
	C376.1,227.9,379.8,228.4,383,230.7z"/>
<path class="st17" d="M185.7,198.2C185.7,198.2,185.7,198.2,185.7,198.2c7.5,1,15.5,4.9,22.4,7.9c1.4,0.6,2.9,1.3,3.8,2.6
	c1,1.4,1,3.3,0.6,5c-0.8,3.3-3,6.2-6,7.9c-2.4,1.3-5.3,1.8-8.1,1.9c-2.6,0.1-5.2-0.2-7.5-1.4c-3.7-1.9-6.2-5.8-6.9-9.9
	C183.7,210.8,183.8,198.2,185.7,198.2z"/>
</svg>
